# xmcd
#
# Track frame offsets: 
#        150
#        18047
#        40879
#        64153
#        88253
#
# Disc length: 1473 seconds
#
# Revision: 0
# Processed by: cddbd v1.5.2PL0 Copyright (c) Steve Scherf et al.
# Submitted via: ExactAudioCopy v0.99pb5
#
DISCID=3705bf05
DTITLE=Two timer - Here it comes
DYEAR=2011
DGENRE=Blues
TTITLE0=01.Got to drink
TTITLE1=02.Here it comes
TTITLE2=03.Moon
TTITLE3=04.Robbery man
TTITLE4=05.Tools blues
EXTD=
EXTT0=
EXTT1=
EXTT2=
EXTT3=
EXTT4=
PLAYORDER=
